# xmcd
#
# Track frame offsets:
#	150
#	18292
#	35698
#	53094
#	68213
#	84378
#	99447
#	115329
#	131515
#	145735
#	160435
#	176910
#	193614
#	208800
#	225493
#	242634
#	257342
#	275903
#	289161
#
# Disc length: 4068 seconds
#
# Revision: 2
# Processed by: cddbd v1.5.2PL0 Copyright (c) Steve Scherf et al.
# Submitted via: EasyCDDAExtractor 11.5.0.1
#
DISCID=150fe213
DTITLE=Various Artist - NCT 061
DYEAR=2004
DGENRE=Country
TTITLE0=Kenny Chesney - I Go Back
TTITLE1=Martina McBride - How Far
TTITLE2=Clint Black - The Boogie Man
TTITLE3=Big and Rich - Save A Horse (Ride A Cowboy)
TTITLE4=Scotty Emerick - The Watch
TTITLE5=McHayes - Tulsa Time
TTITLE6=Terri Clark - Girls Lie Too
TTITLE7=Phil Vassar - In A Real Love
TTITLE8=Trace Adkins - Rough And Ready
TTITLE9=Steve Holy - Put Your Best Dress On
TTITLE10=Rushlow - Sweet Summer Rain
TTITLE11=Mary Chapin Carpenter - What Would You Say To Me
TTITLE12=Patty Loveless - I Wanna Believe
TTITLE13=Jedd Hughes - High Lonesome
TTITLE14=Dierks Bentley - How Am I Doin'
TTITLE15=J. Michael Harter - If You Never Loved Me
TTITLE16=Jeffrey Steele ft. Bret Michaels - Good Year For The Outlaw
TTITLE17=Gene Watson - The Coast Of Texas
TTITLE18=Katy Kiefer - Little Man
EXTD=
EXTT0=
EXTT1=
EXTT2=
EXTT3=
EXTT4=
EXTT5=
EXTT6=
EXTT7=
EXTT8=
EXTT9=
EXTT10=
EXTT11=
EXTT12=
EXTT13=
EXTT14=
EXTT15=
EXTT16=
EXTT17=
EXTT18=
PLAYORDER=
